<?xml version="1.0" encoding="UTF-8"?>
<svg xmlns="http://www.w3.org/2000/svg" width="650px" height="650px" viewBox="0 0 32 32" fill="none">
  <path d="M16 16L28 4" stroke="#232A32" stroke-width="2" stroke-linecap="round" stroke-linejoin="round"></path>
  <path d="M24.4861 7.51471C22.3604 5.39323 19.5159 4.14685 16.5153 4.02216C13.5147 3.89746 10.5765 4.90353 8.28218 6.84133C5.98781 8.77914 4.50434 11.5075 4.12523 14.4867C3.74613 17.4658 4.49901 20.4788 6.23493 22.9295C7.97085 25.3801 10.5634 27.09 13.4996 27.7208C16.4358 28.3515 19.5018 27.8573 22.091 26.3358C24.6803 24.8143 26.6042 22.3764 27.482 19.5044C28.3599 16.6323 28.1279 13.5354 26.8318 10.8263" stroke="#232A32" stroke-width="2" stroke-linecap="round" stroke-linejoin="round"></path>
  <path d="M20.2423 11.7573C19.2503 10.7654 17.9422 10.1525 16.5452 10.025C15.1482 9.89747 13.7507 10.2635 12.5955 11.0595C11.4404 11.8554 10.6007 13.031 10.2223 14.3818C9.844 15.7326 9.95094 17.1733 10.5246 18.4535C11.0982 19.7336 12.1023 20.7723 13.3623 21.389C14.6222 22.0057 16.0585 22.1614 17.4214 21.829C18.7842 21.4967 19.9875 20.6973 20.8222 19.5698C21.6568 18.4423 22.07 17.058 21.9899 15.6575" stroke="#232A32" stroke-width="2" stroke-linecap="round" stroke-linejoin="round"></path>
</svg>
